HIERARCHY
ROOT Hips
{
 OFFSET 0.000000 0.000000 0.000000
 CHANNELS 6 Xposition Yposition Zposition Yrotation Xrotation Zrotation
 JOINT Chest
 {
  OFFSET 0.000000 9.857222 0.000240
  CHANNELS 3 Yrotation Xrotation Zrotation
  JOINT Chest2
  {
   OFFSET 0.000000 10.876940 -0.000436
   CHANNELS 3 Yrotation Xrotation Zrotation
   JOINT Chest3
   {
    OFFSET 0.000000 9.827798 0.000000
    CHANNELS 3 Yrotation Xrotation Zrotation
    JOINT Chest4
    {
     OFFSET 0.000000 9.827798 0.000000
     CHANNELS 3 Yrotation Xrotation Zrotation
     JOINT Neck
     {
      OFFSET 0.000000 13.831992 0.000000
      CHANNELS 3 Yrotation Xrotation Zrotation
      JOINT Head
      {
       OFFSET 0.000000 9.147643 -0.001036
       CHANNELS 3 Yrotation Xrotation Zrotation
       End Site
       {
        OFFSET 0.000000 17.515799 -0.000541
       }
      }
     }
     JOINT RightCollar
     {
      OFFSET -3.001579 7.717577 0.000000
      CHANNELS 3 Yrotation Xrotation Zrotation
      JOINT RightShoulder
      {
       OFFSET -14.002642 0.000000 0.000000
       CHANNELS 3 Yrotation Xrotation Zrotation
       JOINT RightElbow
       {
        OFFSET -30.053852 0.000000 0.000000
        CHANNELS 3 Yrotation Xrotation Zrotation
        JOINT RightWrist
        {
         OFFSET -24.564923 0.000000 -0.000000
         CHANNELS 3 Yrotation Xrotation Zrotation
         End Site
         {
          OFFSET -18.334355 0.000000 0.000000
         }
        }
       }
      }
     }
     JOINT LeftCollar
     {
      OFFSET 3.001579 7.717577 0.000000
      CHANNELS 3 Yrotation Xrotation Zrotation
      JOINT LeftShoulder
      {
       OFFSET 14.002642 0.000000 0.000000
       CHANNELS 3 Yrotation Xrotation Zrotation
       JOINT LeftElbow
       {
        OFFSET 30.053852 0.000000 0.000000
        CHANNELS 3 Yrotation Xrotation Zrotation
        JOINT LeftWrist
        {
         OFFSET 24.564923 0.000000 -0.000000
         CHANNELS 3 Yrotation Xrotation Zrotation
         End Site
         {
          OFFSET 18.334355 0.000000 0.000000
         }
        }
       }
      }
     }
    }
   }
  }
 }
 JOINT RightHip
 {
  OFFSET -8.003235 -0.001175 -0.000120
  CHANNELS 3 Yrotation Xrotation Zrotation
  JOINT RightKnee
  {
   OFFSET 0.000000 -41.759727 0.000113
   CHANNELS 3 Yrotation Xrotation Zrotation
   JOINT RightAnkle
   {
    OFFSET 0.000000 -40.728748 0.000159
    CHANNELS 3 Yrotation Xrotation Zrotation
    JOINT RightToe
    {
     OFFSET 0.000000 -6.515296 14.732841
     CHANNELS 3 Yrotation Xrotation Zrotation
     End Site
     {
      OFFSET 0.000000 -1.502839 6.412115
     }
    }
   }
  }
 }
 JOINT LeftHip
 {
  OFFSET 8.003235 -0.001175 -0.000120
  CHANNELS 3 Yrotation Xrotation Zrotation
  JOINT LeftKnee
  {
   OFFSET 0.000000 -41.759727 0.000113
   CHANNELS 3 Yrotation Xrotation Zrotation
   JOINT LeftAnkle
   {
    OFFSET 0.000000 -40.728748 0.000159
    CHANNELS 3 Yrotation Xrotation Zrotation
    JOINT LeftToe
    {
     OFFSET 0.000000 -6.515296 14.732841
     CHANNELS 3 Yrotation Xrotation Zrotation
     End Site
     {
      OFFSET 0.000000 -1.502839 6.412115
     }
    }
   }
  }
 }
}
MOTION
Frames: 11
Frame Time: 0.016667
0.000000 88.822259 0.000000 0.000000 -5.826342 0.000000 0.000000 11.116423 0.000000 0.000000 -5.290081 0.000000 0.000000 0.000000 0.000000 0.000000 0.000000 0.000000 0.000000 12.665069 0.000000 0.000000 0.575450 0.000000 0.000000 0.000000 0.000000 0.000000 0.000000 0.000000 2.337306 0.000000 0.000000 -2.337306 0.000000 0.000000 0.000000 0.000000 0.000000 0.000000 0.000000 0.000000 -2.337306 0.000000 0.000000 2.337306 0.000000 0.000000 0.000000 8.578828 0.000000 0.000000 1.905768 0.000000 0.000000 -4.658254 0.000000 0.000000 0.000000 0.000000 0.000000 8.578828 0.000000 0.000000 1.905768 0.000000 0.000000 -4.658254 0.000000 0.000000 0.000000 0.000000
2.928445 90.313430 14.973228 -32.517114 -17.003382 -0.076636 0.547959 4.407698 1.076810 0.396352 1.945307 0.541279 0.396352 1.945307 0.541279 0.295512 1.459333 0.404658 -8.134477 24.909423 -0.546441 -14.435328 10.349090 0.964968 8.156831 23.225788 13.364249 40.832623 5.780710 68.804665 30.915096 -13.435997 0.497155 -7.566434 0.635997 -14.722252 -29.059700 22.874424 -21.816003 -22.526858 -2.238942 -67.174705 -33.615691 -15.472671 1.098110 9.231715 8.529253 9.735933 -10.959119 13.740277 -1.310270 1.874929 8.386729 -3.912853 1.961854 -5.057744 1.511632 -0.588605 0.178639 -0.394542 -3.033157 19.553142 3.320137 7.992869 6.311576 -2.815295 -1.224641 -7.743626 -1.156152 0.427969 -0.112195 0.161793
2.961160 90.313538 14.982980 -32.544878 -16.971415 -0.053828 0.534309 4.395786 1.064564 0.408015 1.940900 0.546027 0.408015 1.940900 0.546027 0.304248 1.456041 0.408185 -8.131306 24.913724 -0.544682 -14.429925 10.357008 0.966938 8.155141 23.217854 13.365435 40.847876 5.789407 68.790350 30.876729 -13.482317 0.475597 -7.569482 0.625519 -14.723295 -29.066320 22.875072 -21.822323 -22.504268 -2.254789 -67.178848 -33.458990 -15.503008 1.063715 9.237966 8.539806 9.756078 -11.019418 13.703345 -1.348449 1.931168 8.361985 -3.925566 1.957057 -5.043492 1.572572 -0.626125 0.196378 -0.402305 -3.041712 19.506278 3.293080 7.918573 6.337592 -2.851413 -1.200478 -7.762116 -1.129915 0.461336 -0.107607 0.181858
2.986163 90.314055 14.987578 -32.621112 -16.932528 -0.058560 0.565015 4.386332 1.088009 0.419280 1.935083 0.552204 0.419280 1.935083 0.552204 0.312681 1.451693 0.412786 -8.124601 24.918422 -0.542569 -14.418267 10.365436 0.968682 8.152770 23.204502 13.365480 40.854267 5.800573 68.783936 30.864081 -13.519722 0.458217 -7.569275 0.622701 -14.730416 -29.071242 22.866195 -21.821976 -22.466445 -2.259384 -67.188951 -33.334314 -15.513042 1.032985 9.242472 8.531899 9.780959 -11.022837 13.658506 -1.356055 1.968213 8.347123 -3.922127 1.963740 -5.015320 1.592553 -0.596890 0.195876 -0.377102 -2.986279 19.453798 3.310030 7.863189 6.362505 -2.866594 -1.155203 -7.788700 -1.113191 0.461307 -0.092752 0.187412
3.004571 90.314009 14.986888 -32.723855 -16.893224 -0.073244 0.620180 4.380659 1.126803 0.428120 1.930473 0.557893 0.428120 1.930473 0.557893 0.319297 1.448248 0.417028 -8.115721 24.920021 -0.539632 -14.403015 10.368062 0.971703 8.150478 23.194421 13.367796 40.855141 5.811694 68.769028 30.876795 -13.534390 0.443839 -7.569182 0.616354 -14.739292 -29.078367 22.864948 -21.817348 -22.427884 -2.264665 -67.195068 -33.251870 -15.545219 1.017160 9.247949 8.533372 9.815362 -10.997461 13.607891 -1.332631 1.964926 8.349477 -3.907409 1.967891 -4.990383 1.567350 -0.543853 0.188074 -0.337445 -2.891801 19.404653 3.348839 7.818258 6.386030 -2.875131 -1.112507 -7.817629 -1.093328 0.438468 -0.077081 0.181076
3.016250 90.314472 14.980681 -32.807133 -16.867811 -0.085484 0.646674 4.380297 1.153025 0.436172 1.930847 0.564276 0.436172 1.930847 0.564276 0.325315 1.448541 0.421788 -8.103514 24.922340 -0.535693 -14.382021 10.371885 0.975670 8.155114 23.186771 13.373372 40.854788 5.828624 68.747903 30.908715 -13.533384 0.436193 -7.567984 0.613440 -14.749156 -29.080438 22.867363 -21.810525 -22.401853 -2.267293 -67.201168 -33.198248 -15.570527 1.010929 9.254671 8.532484 9.841604 -10.986733 13.562516 -1.316103 1.961602 8.365819 -3.896613 1.976879 -4.980885 1.544977 -0.509661 0.186483 -0.303948 -2.830772 19.372000 3.385243 7.803338 6.404111 -2.890738 -1.103213 -7.839346 -1.083574 0.435094 -0.064058 0.183649
3.021089 90.316716 14.973271 -32.895084 -16.872904 -0.089847 0.669617 4.397529 1.175430 0.443221 1.938561 0.571781 0.443221 1.938561 0.571781 0.330570 1.454338 0.427389 -8.093342 24.922443 -0.536227 -14.363669 10.371260 0.972354 8.159538 23.184324 13.371517 40.856580 5.834698 68.722167 30.945845 -13.507032 0.428723 -7.565617 0.606038 -14.750875 -29.079708 22.864937 -21.807624 -22.398876 -2.257908 -67.208157 -33.174397 -15.588783 1.013113 9.264948 8.529867 9.852112 -10.956278 13.542400 -1.294155 1.971510 8.398018 -3.895731 1.948732 -4.975308 1.530663 -0.498587 0.177939 -0.281758 -2.758417 19.371279 3.420119 7.806578 6.425316 -2.900802 -1.119826 -7.855507 -1.085466 0.439786 -0.060984 0.190004
3.016794 90.320610 14.962797 -32.977118 -16.898523 -0.088257 0.681388 4.426176 1.197332 0.448567 1.952880 0.579278 0.448567 1.952880 0.579278 0.334542 1.465088 0.432983 -8.082998 24.922402 -0.540282 -14.344163 10.369964 0.962734 8.161840 23.171948 13.362397 40.859054 5.846254 68.701234 30.991179 -13.472740 0.426001 -7.563521 0.594278 -14.752941 -29.076766 22.849799 -21.804172 -22.390852 -2.238991 -67.213351 -33.172280 -15.574894 1.004079 9.274342 8.518364 9.859394 -10.900798 13.546305 -1.278689 1.954337 8.423044 -3.897733 1.978867 -4.968611 1.515231 -0.483123 0.168329 -0.261303 -2.697674 19.397696 3.452637 7.811088 6.432880 -2.919377 -1.115619 -7.855721 -1.088494 0.437424 -0.066492 0.193228
3.013644 90.323499 14.953831 -33.042889 -16.901321 -0.077679 0.677069 4.445597 1.208341 0.449549 1.962027 0.585918 0.449549 1.962027 0.585918 0.335248 1.471954 0.437952 -8.071257 24.926869 -0.546159 -14.321568 10.376704 0.949091 8.163822 23.162791 13.352636 40.867554 5.859999 68.686892 31.045605 -13.438381 0.413604 -7.560959 0.586183 -14.751854 -29.073768 22.837187 -21.807145 -22.364647 -2.230490 -67.206044 -33.179190 -15.546023 0.976398 9.283837 8.524062 9.868538 -10.861979 13.533532 -1.271627 1.938234 8.440873 -3.895806 2.003381 -4.970632 1.503300 -0.485160 0.166349 -0.251413 -2.664135 19.399220 3.464394 7.825244 6.441038 -2.927558 -1.125094 -7.856007 -1.095396 0.435212 -0.072516 0.196132
3.007860 90.323290 14.942151 -33.099117 -16.887987 -0.072363 0.670175 4.461732 1.216400 0.449887 1.967521 0.591013 0.449887 1.967521 0.591013 0.335479 1.476078 0.441768 -8.058086 24.935126 -0.544529 -14.298093 10.391190 0.948128 8.165515 23.149367 13.359095 40.869156 5.882908 68.667086 31.115124 -13.415121 0.411800 -7.559239 0.572072 -14.778562 -29.087709 22.846230 -21.809411 -22.358071 -2.250486 -67.188036 -33.181752 -15.528728 0.957350 9.287509 8.523512 9.883363 -10.825897 13.509242 -1.257980 1.916398 8.451201 -3.893330 2.011459 -4.975938 1.486376 -0.474764 0.171707 -0.237763 -2.652692 19.382618 3.473506 7.856290 6.453234 -2.934224 -1.120185 -7.868715 -1.099808 0.424613 -0.067762 0.194152
3.001722 90.322995 14.930004 -33.157154 -16.897934 -0.069415 0.676172 4.486780 1.227388 0.448713 1.978065 0.596486 0.448713 1.978065 0.596486 0.334571 1.483989 0.445868 -8.043499 24.948570 -0.537417 -14.273234 10.415777 0.956101 8.160237 23.128737 13.363796 40.839477 5.900821 68.655932 31.182876 -13.372718 0.400145 -7.552907 0.562367 -14.796156 -29.124365 22.864049 -21.825298 -22.393804 -2.267472 -67.136509 -33.186313 -15.555109 0.945078 9.283958 8.516056 9.889152 -10.751520 13.508253 -1.238720 1.885107 8.459008 -3.889166 2.032366 -4.969784 1.476235 -0.472065 0.170212 -0.231658 -2.631422 19.393857 3.478526 7.898683 6.458686 -2.926407 -1.100666 -7.883770 -1.115078 0.414824 -0.059222 0.193023
